<svg width="255" height="33" viewBox="0 0 255 33" fill="none" xmlns="http://www.w3.org/2000/svg">
<path d="M11.88 32.28C8.6 32.28 5.90667 31.5067 3.8 29.96C1.69333 28.3867 0.56 26.1467 0.4 23.24H8.76C8.84 24.2267 9.13333 24.9467 9.64 25.4C10.1467 25.8533 10.8 26.08 11.6 26.08C12.32 26.08 12.9067 25.9067 13.36 25.56C13.84 25.1867 14.08 24.68 14.08 24.04C14.08 23.2133 13.6933 22.5733 12.92 22.12C12.1467 21.6667 10.8933 21.16 9.16 20.6C7.32 19.9867 5.82667 19.4 4.68 18.84C3.56 18.2533 2.57333 17.4133 1.72 16.32C0.893333 15.2 0.48 13.7467 0.48 11.96C0.48 10.1467 0.933333 8.6 1.84 7.32C2.74667 6.01333 4 5.02667 5.6 4.36C7.2 3.69333 9.01333 3.36 11.04 3.36C14.32 3.36 16.9333 4.13333 18.88 5.68C20.8533 7.2 21.9067 9.34667 22.04 12.12H13.52C13.4933 11.2667 13.2267 10.6267 12.72 10.2C12.24 9.77333 11.6133 9.56 10.84 9.56C10.2533 9.56 9.77333 9.73333 9.4 10.08C9.02667 10.4267 8.84 10.92 8.84 11.56C8.84 12.0933 9.04 12.56 9.44 12.96C9.86667 13.3333 10.3867 13.6667 11 13.96C11.6133 14.2267 12.52 14.5733 13.72 15C15.5067 15.6133 16.9733 16.2267 18.12 16.84C19.2933 17.4267 20.2933 18.2667 21.12 19.36C21.9733 20.4267 22.4 21.7867 22.4 23.44C22.4 25.12 21.9733 26.6267 21.12 27.96C20.2933 29.2933 19.08 30.3467 17.48 31.12C15.9067 31.8933 14.04 32.28 11.88 32.28ZM36.4847 32.28C34.2447 32.28 32.2314 31.8133 30.4447 30.88C28.6847 29.9467 27.298 28.6133 26.2847 26.88C25.2714 25.1467 24.7647 23.1067 24.7647 20.76C24.7647 18.44 25.2714 16.4133 26.2847 14.68C27.3247 12.9467 28.7247 11.6133 30.4847 10.68C32.2714 9.74667 34.2847 9.28 36.5247 9.28C38.7647 9.28 40.7647 9.74667 42.5247 10.68C44.3114 11.6133 45.7114 12.9467 46.7247 14.68C47.7647 16.4133 48.2847 18.44 48.2847 20.76C48.2847 23.08 47.7647 25.12 46.7247 26.88C45.7114 28.6133 44.3114 29.9467 42.5247 30.88C40.738 31.8133 38.7247 32.28 36.4847 32.28ZM36.4847 25.48C37.578 25.48 38.4847 25.08 39.2047 24.28C39.9514 23.4533 40.3247 22.28 40.3247 20.76C40.3247 19.24 39.9514 18.08 39.2047 17.28C38.4847 16.48 37.5914 16.08 36.5247 16.08C35.458 16.08 34.5647 16.48 33.8447 17.28C33.1247 18.08 32.7647 19.24 32.7647 20.76C32.7647 22.3067 33.1114 23.48 33.8047 24.28C34.498 25.08 35.3914 25.48 36.4847 25.48ZM63.5944 16.08H60.0744V32H52.1944V16.08H49.7544V9.56H52.1944V9.36C52.1944 6.48 53.0344 4.28 54.7144 2.76C56.421 1.21333 58.861 0.439999 62.0344 0.439999C62.6744 0.439999 63.1677 0.453332 63.5144 0.479998V7.16C63.301 7.13333 63.0077 7.12 62.6344 7.12C61.781 7.12 61.1544 7.32 60.7544 7.72C60.3544 8.09333 60.1277 8.70666 60.0744 9.56H63.5944V16.08ZM79.6363 25.32V32H76.2363C70.5029 32 67.6363 29.16 67.6363 23.48V16.08H64.8763V9.56H67.6363V4.12H75.5163V9.56H79.5963V16.08H75.5163V23.6C75.5163 24.2133 75.6496 24.6533 75.9162 24.92C76.2096 25.1867 76.6896 25.32 77.3563 25.32H79.6363ZM116.392 9.56L110.672 32H101.872L98.7522 18.4L95.5122 32H86.7522L81.0722 9.56H88.8722L91.3922 24.44L94.7122 9.56H103.112L106.552 24.48L109.032 9.56H116.392ZM117.343 20.76C117.343 18.44 117.756 16.4133 118.583 14.68C119.436 12.9467 120.583 11.6133 122.023 10.68C123.489 9.74667 125.116 9.28 126.903 9.28C128.449 9.28 129.783 9.58667 130.903 10.2C132.023 10.8133 132.889 11.64 133.503 12.68V9.56H141.343V32H133.503V28.88C132.889 29.92 132.009 30.7467 130.863 31.36C129.743 31.9733 128.423 32.28 126.903 32.28C125.116 32.28 123.489 31.8133 122.023 30.88C120.583 29.9467 119.436 28.6133 118.583 26.88C117.756 25.12 117.343 23.08 117.343 20.76ZM133.503 20.76C133.503 19.32 133.103 18.1867 132.303 17.36C131.529 16.5333 130.569 16.12 129.423 16.12C128.249 16.12 127.276 16.5333 126.503 17.36C125.729 18.16 125.343 19.2933 125.343 20.76C125.343 22.2 125.729 23.3467 126.503 24.2C127.276 25.0267 128.249 25.44 129.423 25.44C130.569 25.44 131.529 25.0267 132.303 24.2C133.103 23.3733 133.503 22.2267 133.503 20.76ZM153.65 13.52C154.53 12.24 155.597 11.2267 156.85 10.48C158.104 9.73333 159.45 9.36 160.89 9.36V17.72H158.69C156.984 17.72 155.717 18.0533 154.89 18.72C154.064 19.3867 153.65 20.5467 153.65 22.2V32H145.81V9.56H153.65V13.52ZM185.141 20.52C185.141 21.1333 185.101 21.7467 185.021 22.36H170.181C170.261 23.5867 170.594 24.5067 171.181 25.12C171.794 25.7067 172.568 26 173.501 26C174.808 26 175.741 25.4133 176.301 24.24H184.661C184.314 25.7867 183.634 27.1733 182.621 28.4C181.634 29.6 180.381 30.5467 178.861 31.24C177.341 31.9333 175.661 32.28 173.821 32.28C171.608 32.28 169.634 31.8133 167.901 30.88C166.194 29.9467 164.848 28.6133 163.861 26.88C162.901 25.1467 162.421 23.1067 162.421 20.76C162.421 18.4133 162.901 16.3867 163.861 14.68C164.821 12.9467 166.154 11.6133 167.861 10.68C169.594 9.74667 171.581 9.28 173.821 9.28C176.034 9.28 177.994 9.73333 179.701 10.64C181.408 11.5467 182.741 12.8533 183.701 14.56C184.661 16.24 185.141 18.2267 185.141 20.52ZM177.141 18.56C177.141 17.6 176.821 16.8533 176.181 16.32C175.541 15.76 174.741 15.48 173.781 15.48C172.821 15.48 172.034 15.7467 171.421 16.28C170.808 16.7867 170.408 17.5467 170.221 18.56H177.141ZM197.909 32.28C195.883 32.28 194.069 31.9467 192.469 31.28C190.896 30.5867 189.643 29.6533 188.709 28.48C187.803 27.28 187.296 25.9333 187.189 24.44H194.789C194.896 25.16 195.229 25.72 195.789 26.12C196.349 26.52 197.043 26.72 197.869 26.72C198.509 26.72 199.016 26.5867 199.389 26.32C199.763 26.0533 199.949 25.7067 199.949 25.28C199.949 24.72 199.643 24.3067 199.029 24.04C198.416 23.7733 197.403 23.48 195.989 23.16C194.389 22.84 193.056 22.48 191.989 22.08C190.923 21.68 189.989 21.0267 189.189 20.12C188.416 19.2133 188.029 17.9867 188.029 16.44C188.029 15.1067 188.389 13.9067 189.109 12.84C189.829 11.7467 190.883 10.88 192.269 10.24C193.683 9.6 195.376 9.28 197.349 9.28C200.283 9.28 202.589 10 204.269 11.44C205.949 12.88 206.923 14.7733 207.189 17.12H200.109C199.976 16.4 199.656 15.8533 199.149 15.48C198.669 15.08 198.016 14.88 197.189 14.88C196.549 14.88 196.056 15 195.709 15.24C195.389 15.48 195.229 15.8133 195.229 16.24C195.229 16.7733 195.536 17.1867 196.149 17.48C196.763 17.7467 197.749 18.0267 199.109 18.32C200.736 18.6667 202.083 19.0533 203.149 19.48C204.243 19.9067 205.189 20.6 205.989 21.56C206.816 22.4933 207.229 23.7733 207.229 25.4C207.229 26.7067 206.843 27.88 206.069 28.92C205.323 29.96 204.243 30.7867 202.829 31.4C201.443 31.9867 199.803 32.28 197.909 32.28ZM228.404 14.88V21.4H210.284V14.88H228.404ZM242.769 25.64H254.489V32H233.969V26.04L245.569 10.12H233.969V3.8H254.489V9.76L242.769 25.64Z" fill="url(#paint0_linear_150_152)"/>
<defs>
<linearGradient id="paint0_linear_150_152" x1="-1" y1="20" x2="427.012" y2="21.0163" gradientUnits="userSpaceOnUse">
<stop stop-color="#F5401C"/>
<stop offset="1" stop-color="#FFCA18"/>
</linearGradient>
</defs>
</svg>
